<svg width="16" height="16" viewBox="0 0 16 16" fill="none" xmlns="http://www.w3.org/2000/svg">
<path d="M15.6535 5.62979H14.48C14.3907 5.62979 14.3048 5.66433 14.2403 5.72614L13.9898 5.9661C13.5675 4.98911 12.9618 4.02297 12.1436 3.02274C11.7013 2.48229 11.0473 2.17236 10.349 2.17236H5.65095C4.9526 2.17236 4.29854 2.48233 3.85651 3.02278C3.01251 4.05447 2.41881 4.99734 2.00657 5.96266L1.75979 5.72614C1.69527 5.66433 1.60934 5.62979 1.51996 5.62979H0.346577C0.15515 5.62979 0 5.78494 0 5.97637V6.77865C0 6.96159 0.142218 7.11296 0.324788 7.12452L1.5309 7.20049C1.34866 7.733 1.20637 8.52654 1.20637 9.64564C1.20637 10.6167 1.40031 11.2549 1.73785 11.668V13.5374C1.73785 13.6977 1.8678 13.8276 2.0281 13.8276H3.36316C3.52354 13.8276 3.65353 13.6977 3.65353 13.5374V12.3766H12.3465V13.5374C12.3465 13.6977 12.4765 13.8276 12.6368 13.8276H13.9719C14.1322 13.8276 14.2622 13.6977 14.2622 13.5374V11.668C14.5996 11.2549 14.7937 10.6167 14.7937 9.64564C14.7937 8.52654 14.6514 7.733 14.4691 7.20049L15.6752 7.12452C15.8578 7.11296 16 6.96159 16 6.77865V5.97637C16 5.78494 15.8449 5.62979 15.6535 5.62979ZM4.84703 3.83306C5.04513 3.59095 5.33816 3.45203 5.65095 3.45203H10.349C10.6618 3.45203 10.9549 3.59095 11.153 3.83306C11.7254 4.53278 12.1774 5.2024 12.5268 5.86943L3.46521 5.87113C3.80693 5.21892 4.26153 4.54875 4.84703 3.83306ZM3.85955 10.957C3.19504 10.957 2.65641 10.7399 2.65641 10.2134C2.65641 9.68692 2.85184 9.26001 3.51631 9.26001C4.18078 9.26001 5.06262 9.68692 5.06262 10.2134C5.06262 10.7399 4.52395 10.957 3.85955 10.957ZM9.26119 10.8472H6.73888C6.35862 10.8472 6.04929 10.5379 6.04929 10.1577C6.04929 10.051 6.13577 9.96454 6.24249 9.96454H9.75765C9.86434 9.96454 9.95075 10.051 9.95075 10.1577C9.95075 10.5379 9.64141 10.8472 9.26119 10.8472ZM12.1405 10.957C11.476 10.957 10.9373 10.7399 10.9373 10.2134C10.9373 9.68692 11.8193 9.26001 12.4837 9.26001C13.1481 9.26001 13.3436 9.68692 13.3436 10.2134C13.3436 10.7399 12.805 10.957 12.1405 10.957Z" fill="#9E7B56"/>
</svg>
