<svg width="47" height="49" viewBox="0 0 47 49" fill="none" xmlns="http://www.w3.org/2000/svg">
<path d="M46.28 12.702L42.1973 4.53575C42.1971 4.53537 42.1969 4.53489 42.1966 4.53451C42.1818 4.50484 42.1644 4.47632 42.1458 4.44838C42.1398 4.43929 42.1336 4.43058 42.1273 4.42177C42.1133 4.40253 42.0983 4.38387 42.0826 4.36569C42.0757 4.35775 42.0692 4.34942 42.062 4.34167C42.0413 4.31966 42.0191 4.2987 41.9957 4.27879C41.9847 4.26941 41.9731 4.26109 41.9616 4.25228C41.9524 4.2453 41.9439 4.23773 41.9343 4.23113C41.9282 4.22682 41.9217 4.22338 41.9155 4.21936C41.9033 4.21132 41.8911 4.20357 41.8785 4.1962C41.8582 4.18424 41.8375 4.17361 41.8166 4.16356C41.8085 4.15974 41.8008 4.15524 41.7926 4.1517C41.7624 4.13859 41.7318 4.12777 41.7008 4.11849C41.6926 4.116 41.6842 4.11409 41.6759 4.11188C41.6492 4.1048 41.6224 4.09906 41.5954 4.09475C41.5882 4.09361 41.5811 4.09217 41.5738 4.09121C41.5396 4.08671 41.5054 4.08423 41.4712 4.08403C41.4697 4.08403 41.4682 4.08375 41.4667 4.08375H16.1595V2.45C16.1595 2.17638 16.0223 1.92076 15.7945 1.76974L13.3347 0.136377C13.2007 0.047373 13.0439 0 12.8831 0H9.61642C9.45554 0 9.29706 0.0481387 9.16317 0.137238L6.71317 1.77051C6.48616 1.92239 6.34979 2.17725 6.34979 2.45V4.08337H3.8996C3.44883 4.08337 3.08296 4.44924 3.08296 4.9V13.0666C3.08296 13.5174 3.44883 13.8833 3.8996 13.8833H6.34969V14.7139C6.34969 14.7141 6.34969 14.7143 6.34969 14.7145V47.3666H1.44969C0.99893 47.3666 0.633057 47.7325 0.633057 48.1833C0.633057 48.634 0.99893 49 1.44969 49H7.16633H15.3428H21.0497C21.5005 49 21.8663 48.6341 21.8663 48.1834C21.8663 47.7326 21.5005 47.3667 21.0497 47.3667H16.1595V27.7753C16.1595 27.7725 16.1599 27.7696 16.1599 27.7667C16.1599 27.7639 16.1595 27.761 16.1595 27.7581V13.8837H34.933V18.7834C34.933 19.2341 35.2988 19.6 35.7496 19.6C36.6504 19.6 37.383 20.3325 37.383 21.2334C37.383 22.1341 36.6504 22.8667 35.7496 22.8667C34.8487 22.8667 34.1162 22.1342 34.1162 21.2334C34.1162 20.7826 33.7504 20.4167 33.2996 20.4167C32.8488 20.4167 32.483 20.7826 32.483 21.2334C32.4831 23.0349 33.9482 24.5 35.7497 24.5C37.5512 24.5 39.0163 23.0349 39.0163 21.2334C39.0163 19.7137 37.9738 18.4335 36.5663 18.07V13.8837H45.5498C45.8324 13.8837 46.0953 13.7367 46.2439 13.4966C46.3935 13.2557 46.4065 12.9552 46.28 12.702ZM14.5262 13.1388L12.6731 11.8416L14.5262 10.5445V13.1388ZM13.9768 14.7471L11.2596 16.9209L8.53316 14.7397L11.2497 12.8381L13.9768 14.7471ZM7.98306 32.6087V29.4578L9.95243 31.0333L7.98306 32.6087ZM11.2596 32.079L14.0359 34.3L11.2596 36.521L8.4833 34.3L11.2596 32.079ZM8.48339 27.7666L11.2596 25.5457L14.0359 27.7666L11.2596 29.9875L8.48339 27.7666ZM7.98306 26.0755V22.9245L9.95243 24.5L7.98306 26.0755ZM8.4833 21.2334L11.2596 19.0124L14.0359 21.2334L11.2596 23.4543L8.4833 21.2334ZM7.98306 19.5421V16.3912L9.95243 17.9666L7.98306 19.5421ZM7.98306 13.1319V10.5515L9.8262 11.8417L7.98306 13.1319ZM7.98306 35.9913L9.95243 37.5667L7.98306 39.1422V35.9913ZM11.2596 38.6125L14.0815 40.87L11.2596 43.4099L8.43765 40.87L11.2596 38.6125ZM12.5669 37.5667L14.5262 35.9993V39.1342L12.5669 37.5667ZM12.5669 31.0333L14.5262 29.4658V32.6007L12.5669 31.0333ZM12.5669 24.5L14.5262 22.9326V26.0674L12.5669 24.5ZM12.5669 17.9666L14.5262 16.3992V19.5341L12.5669 17.9666ZM14.5262 7.42206L12.6731 6.125L14.5262 4.82784V7.42206ZM13.9096 8.98327L11.2497 10.8453L8.58981 8.98337L11.2497 7.12137L13.9096 8.98327ZM7.98306 7.41517V4.83473L9.8262 6.125L7.98306 7.41517ZM10.0394 44.5082L7.98306 46.359V42.6575L10.0394 44.5082ZM11.2596 45.6065L13.2154 47.3667H9.30376L11.2596 45.6065ZM12.4799 44.5082L14.5262 42.6665V46.3499L12.4799 44.5082ZM16.1596 6.20769L18.3805 8.98384L16.1596 11.76V6.20769ZM30.9254 5.71711H34.0605L32.4929 7.67644L30.9254 5.71711ZM31.4471 8.98346L29.2259 11.7596L27.0055 8.98404L29.2267 6.20788L31.4471 8.98346ZM25.9596 7.67663L24.392 5.71711H27.5272L25.9596 7.67663ZM24.9137 8.98404L22.6933 11.7596L20.4721 8.98346L22.6925 6.20788L24.9137 8.98404ZM19.4265 7.67644L17.8589 5.71711H20.994L19.4265 7.67644ZM19.4263 10.291L20.9939 12.2505H17.8588L19.4263 10.291ZM25.9596 10.2912L27.5272 12.2504H24.3921L25.9596 10.2912ZM32.493 10.291L34.0605 12.2505H30.9254L32.493 10.291ZM35.7107 11.6988L33.5387 8.98375L35.711 6.26827L37.6116 8.98327L35.7107 11.6988ZM38.608 10.4069L39.8984 12.2504H37.3174L38.608 10.4069ZM37.318 5.71711H39.8979L38.608 7.55997L37.318 5.71711ZM9.86381 1.63337H12.6364L14.4869 2.86248L11.2497 5.12854L8.01598 2.86497L9.86381 1.63337ZM6.3496 12.25H4.71623V5.71663H6.3496V12.25ZM41.8913 12.2504L39.6044 8.98337L41.3489 6.49126L44.2285 12.2504H41.8913Z" fill="#E3CEA3"/>
<path d="M44.7327 26.1333H26.766C26.3153 26.1333 25.9494 26.4992 25.9494 26.9499V48.1833C25.9494 48.6341 26.3153 48.9999 26.766 48.9999H44.7327C45.1834 48.9999 45.5493 48.6341 45.5493 48.1833V26.9499C45.5494 26.4992 45.1835 26.1333 44.7327 26.1333ZM37.3829 47.3666H34.1162V44.0999H37.3829V47.3666ZM43.916 47.3666H39.0162V43.2832C39.0162 42.8324 38.6504 42.4666 38.1996 42.4666H33.2996C32.8488 42.4666 32.483 42.8324 32.483 43.2832V47.3666H27.5828V27.7666H43.9161V47.3666H43.916Z" fill="#E3CEA3"/>
<path d="M39.0164 34.3H40.6497C41.5504 34.3 42.283 33.5675 42.283 32.6666V31.0333C42.283 30.1325 41.5505 29.3999 40.6497 29.3999H39.0163C38.1155 29.3999 37.3829 30.1324 37.3829 31.0333V32.6666C37.383 33.5675 38.1155 34.3 39.0164 34.3ZM39.0164 31.0334H40.6497L40.6505 32.6667H39.0164V31.0334Z" fill="#E3CEA3"/>
<path d="M30.8497 34.3H32.4831C33.3839 34.3 34.1165 33.5675 34.1165 32.6666V31.0333C34.1165 30.1325 33.3839 29.3999 32.4831 29.3999H30.8497C29.949 29.3999 29.2164 30.1324 29.2164 31.0333V32.6666C29.2165 33.5675 29.949 34.3 30.8497 34.3ZM30.8497 31.0334H32.4831L32.484 32.6667H30.8497V31.0334Z" fill="#E3CEA3"/>
<path d="M39.0164 40.8333H40.6497C41.5504 40.8333 42.283 40.1008 42.283 39.2V37.5666C42.283 36.6658 41.5505 35.9332 40.6497 35.9332H39.0163C38.1155 35.9332 37.3829 36.6657 37.3829 37.5666V39.2C37.383 40.1007 38.1155 40.8333 39.0164 40.8333ZM39.0164 37.5666H40.6497L40.6505 39.2H39.0164V37.5666Z" fill="#E3CEA3"/>
<path d="M30.8497 40.8333H32.4831C33.3839 40.8333 34.1165 40.1008 34.1165 39.2V37.5666C34.1165 36.6658 33.3839 35.9332 32.4831 35.9332H30.8497C29.949 35.9332 29.2164 36.6657 29.2164 37.5666V39.2C29.2165 40.1007 29.949 40.8333 30.8497 40.8333ZM30.8497 37.5666H32.4831L32.484 39.2H30.8497V37.5666Z" fill="#E3CEA3"/>
</svg>
